<svg width="17" height="16" viewBox="0 0 17 16" fill="none" xmlns="http://www.w3.org/2000/svg">
<path d="M7.49967 4.7187H5.88802L5.62457 2.34639C5.60926 1.58416 4.98454 0.968506 4.21856 0.968506H1.34341C1.08433 0.968506 0.874634 1.1782 0.874634 1.43728C0.874634 1.69636 1.08433 1.90606 1.34341 1.90606H4.21856C4.47701 1.90606 4.68733 2.11638 4.68733 2.37483C4.68733 2.41514 4.62796 1.86668 5.58082 10.4412C5.0586 10.6465 4.68733 11.1556 4.68733 11.7503C4.68733 12.5257 5.31831 13.1563 6.09366 13.1563H6.64306C6.59118 13.3032 6.56243 13.461 6.56243 13.6254C6.56243 14.4008 7.1934 15.0317 7.96876 15.0317C8.74411 15.0317 9.37508 14.4008 9.37508 13.6254C9.37508 13.461 9.34664 13.3029 9.29445 13.1563H12.2684C12.2162 13.3032 12.1877 13.461 12.1877 13.6254C12.1877 14.4008 12.8187 15.0317 13.5941 15.0317C14.3694 15.0317 15.0004 14.4008 15.0004 13.6254C15.0004 12.8501 14.3694 12.2191 13.5941 12.2191H6.09366C5.83521 12.2191 5.62488 12.0088 5.62488 11.7503C5.62488 11.4919 5.83521 11.2815 6.09366 11.2815H14.675C15.3654 11.2815 15.9489 10.7875 16.0623 10.1065L16.8692 5.26467C16.8917 5.12872 16.8536 4.98966 16.7645 4.88465C16.6755 4.77964 16.5445 4.71902 16.4067 4.71902H15.0004H7.49967V4.7187ZM8.43722 13.6254C8.43722 13.8839 8.22689 14.0942 7.96844 14.0942C7.70999 14.0942 7.49967 13.8839 7.49967 13.6254C7.49967 13.367 7.70999 13.1563 7.96844 13.1563C8.22689 13.1563 8.43722 13.367 8.43722 13.6254ZM13.5937 14.0942C13.3353 14.0942 13.125 13.8839 13.125 13.6254C13.125 13.366 13.3353 13.1566 13.5937 13.1566C13.8522 13.1566 14.0625 13.367 14.0625 13.6254C14.0625 13.8839 13.8522 14.0942 13.5937 14.0942ZM15.8529 5.65625L15.1369 9.9521C15.0991 10.1793 14.9047 10.344 14.6744 10.344H6.51305L5.99209 5.65625H15.8529Z" fill="#282C34"/>
</svg>
